<svg width="12" height="462" viewBox="0 0 12 462" fill="none" xmlns="http://www.w3.org/2000/svg">
<path d="M6 0.666667C3.05448 0.666666 0.666667 3.05448 0.666667 6C0.666666 8.94552 3.05448 11.3333 6 11.3333C8.94552 11.3333 11.3333 8.94552 11.3333 6C11.3333 3.05448 8.94552 0.666667 6 0.666667ZM5.99998 450.667C3.05446 450.667 0.666647 453.054 0.666647 456C0.666647 458.946 3.05446 461.333 5.99998 461.333C8.9455 461.333 11.3333 458.946 11.3333 456C11.3333 453.054 8.9455 450.667 5.99998 450.667ZM5 6L4.99998 456L6.99998 456L7 6L5 6Z" fill="#807040"/>
</svg>
